<svg width="40" height="40" viewBox="0 0 40 40" fill="none" xmlns="http://www.w3.org/2000/svg">
<path d="M30.8002 20C30.8002 17.7434 30.0934 15.5435 28.7789 13.7092C27.4645 11.8749 25.6086 10.4985 23.4717 9.77311C21.3349 9.04775 19.0245 9.00994 16.8651 9.665C14.7057 10.32 12.8057 11.6351 11.432 13.4253C10.0583 15.2156 9.27981 17.3912 9.20598 19.6466C9.13214 21.902 9.76663 24.1238 11.0203 26.0001C12.274 27.8764 14.0839 29.3128 16.1959 30.1077C18.3078 30.9026 20.6157 31.016 22.7954 30.4319" stroke="#B68C2D" stroke-linecap="round"/>
<circle cx="20.0002" cy="20" r="4.8" stroke="#B68C2D"/>
<path d="M24.7998 16.3999V21.7999C24.7998 23.4568 26.143 24.7999 27.7998 24.7999V24.7999C29.4567 24.7999 30.7998 23.4568 30.7998 21.7999V19.9999" stroke="#B68C2D" stroke-linecap="round"/>
</svg>
