<svg width="127" height="23" viewBox="0 0 127 23" fill="none" xmlns="http://www.w3.org/2000/svg">
<path d="M2.22236 3.60976C2.39379 3.87317 2.60761 4.10625 2.85511 4.29952C3.11123 4.49587 3.44769 4.7325 3.85948 5.01445C4.24667 5.25575 4.62051 5.51794 4.97935 5.79986C5.26465 6.02787 5.50627 6.30594 5.69245 6.62052C5.89098 6.95699 5.99185 7.34235 5.98372 7.73319C5.99123 8.19651 5.85429 8.65061 5.59202 9.03215C5.31795 9.4213 4.94281 9.72776 4.5073 9.91826C4.02202 10.1331 3.49598 10.2396 2.96559 10.2304C2.52163 10.2283 2.07966 10.1708 1.64987 10.0592C1.31814 9.99645 1.00331 9.86436 0.725845 9.67156C0.683454 9.64441 0.647472 9.60833 0.62039 9.56583C0.591667 9.51733 0.579333 9.46082 0.585234 9.40472L0.540039 7.17434C0.540039 7.1391 0.565148 7.11896 0.610345 7.11392C0.655541 7.10889 0.685671 7.11392 0.695715 7.15924C0.976939 7.73319 1.22301 8.19639 1.42891 8.54882C1.64 8.9057 1.90999 9.22405 2.22738 9.49031C2.53215 9.75608 2.92325 9.9011 3.32717 9.89812C3.66126 9.91119 3.989 9.80404 4.25119 9.59604C4.3807 9.46454 4.48013 9.30636 4.54257 9.13248C4.60501 8.9586 4.62896 8.77318 4.61276 8.58909C4.62178 8.21191 4.52803 7.8394 4.34158 7.51167C4.16948 7.21061 3.94497 6.94289 3.6787 6.72122C3.41756 6.50976 3.05599 6.25299 2.599 5.9509C2.23696 5.72265 1.88821 5.47387 1.55445 5.20577C1.30367 4.99635 1.08976 4.74616 0.921697 4.46566C0.741295 4.16136 0.649123 3.81265 0.655539 3.45872C0.641676 3.0028 0.793357 2.55733 1.0824 2.20507C1.37242 1.85749 1.75064 1.59484 2.17716 1.44483C2.63173 1.28281 3.11089 1.20105 3.59332 1.20317C3.93014 1.20322 4.26628 1.23355 4.59769 1.29379C4.87416 1.33669 5.14523 1.40927 5.40621 1.51028C5.47375 1.53283 5.53314 1.57487 5.57695 1.63112C5.60485 1.6801 5.61875 1.73584 5.61713 1.79223V3.85143C5.61713 3.88163 5.61713 3.90177 5.54682 3.91688C5.47652 3.93198 5.47149 3.91688 5.46647 3.91688L5.35097 3.65004C5.14942 3.11089 4.87392 2.60253 4.53241 2.13962C4.38146 1.93768 4.18364 1.77572 3.9561 1.6678C3.72857 1.55988 3.4782 1.50927 3.22673 1.52035C2.89057 1.506 2.5617 1.62131 2.30773 1.84257C2.18426 1.96457 2.08849 2.11183 2.02696 2.2743C1.96543 2.43678 1.93958 2.61066 1.95118 2.78407C1.96175 3.07949 2.0558 3.36583 2.22236 3.60976Z" fill="white"/>
<path d="M14.3802 1.89811C14.2659 1.75496 14.1194 1.64107 13.9526 1.56579C13.7858 1.49052 13.6036 1.45601 13.421 1.46513C13.421 1.46513 13.3959 1.43492 13.3959 1.37953C13.3959 1.32415 13.3959 1.29395 13.421 1.29395H14.0939C14.4505 1.29395 14.7317 1.32415 14.9476 1.32415C15.1636 1.32415 15.3795 1.32415 15.716 1.29395H16.3638C16.3638 1.29395 16.3889 1.32415 16.3889 1.37953C16.3889 1.43492 16.3889 1.46513 16.3638 1.46513C16.1968 1.46042 16.0313 1.49755 15.8822 1.57316C15.7331 1.64876 15.6052 1.76045 15.5101 1.89811C15.2844 2.25342 15.1755 2.67074 15.1987 3.09134V6.99324C15.2112 7.59562 15.062 8.1903 14.7668 8.71511C14.48 9.21029 14.0537 9.6096 13.5415 9.86303C12.9719 10.138 12.3456 10.2742 11.7136 10.2608C11.0806 10.2729 10.4534 10.1385 9.8806 9.86806C9.36423 9.62297 8.92986 9.23297 8.63016 8.74532C8.3179 8.21174 8.15968 7.60166 8.17317 6.98317V2.45193C8.18267 2.24274 8.15722 2.03343 8.09784 1.83266C8.07393 1.76932 8.0363 1.71209 7.98767 1.66507C7.93904 1.61806 7.88063 1.58245 7.81662 1.56078C7.60959 1.50078 7.39413 1.47527 7.17885 1.48527C7.15374 1.48527 7.13867 1.45506 7.13867 1.39967C7.13867 1.34429 7.13867 1.31408 7.17885 1.31408H7.92208C8.35396 1.31408 8.69042 1.34429 8.92645 1.34429C9.16247 1.34429 9.5592 1.34429 9.98605 1.31408H10.7042C10.7293 1.31408 10.7444 1.34429 10.7444 1.39967C10.7444 1.45506 10.7444 1.48527 10.7042 1.48527C10.4881 1.47239 10.2715 1.50145 10.0664 1.57085C10.0024 1.59674 9.94435 1.63558 9.89596 1.68496C9.84758 1.73434 9.80986 1.79319 9.78518 1.85783C9.7259 2.06034 9.70044 2.2713 9.70985 2.48214V6.50991C9.63965 7.38362 9.87199 8.25489 10.3677 8.97692C10.5944 9.24557 10.8802 9.45772 11.2027 9.59665C11.5251 9.73557 11.8754 9.79747 12.2258 9.77744C12.5625 9.79561 12.8992 9.7417 13.2135 9.6193C13.5278 9.4969 13.8125 9.30881 14.0487 9.06754C14.5158 8.50473 14.7511 7.78445 14.7066 7.05366V3.09134C14.7362 2.66797 14.621 2.24713 14.3802 1.89811Z" fill="white"/>
<path d="M26.7156 1.37891C26.7156 1.43429 26.7156 1.4645 26.6854 1.4645C26.5134 1.45659 26.3421 1.49319 26.1882 1.57078C26.0343 1.64837 25.9029 1.76434 25.8066 1.90755C25.5738 2.25652 25.4594 2.6714 25.4802 3.09071V10.2551C25.4802 10.2551 25.4802 10.3004 25.4199 10.3105C25.4064 10.319 25.3907 10.3235 25.3747 10.3235C25.3588 10.3235 25.3431 10.319 25.3295 10.3105L18.766 2.82387V8.2815C18.7424 8.6967 18.8496 9.10882 19.0723 9.45963C19.1669 9.59822 19.2946 9.71089 19.4437 9.78739C19.5928 9.86389 19.7586 9.9018 19.926 9.89765C19.926 9.89765 19.9562 9.92282 19.9562 9.9782C19.9562 10.0336 19.9562 10.0638 19.926 10.0638C19.6649 10.0638 19.464 10.0638 19.3234 10.0638H18.5701H17.7014C17.5407 10.0638 17.3147 10.0638 17.0134 10.0638C16.9883 10.0638 16.9732 10.0336 16.9732 9.9782C16.9732 9.92282 16.9732 9.89765 17.0134 9.89765C17.1986 9.90574 17.3831 9.87036 17.5522 9.79431C17.7214 9.71827 17.8705 9.60366 17.9876 9.45963C18.2431 9.12226 18.3696 8.70431 18.3442 8.2815V2.34557C18.1161 2.07716 17.8505 1.84315 17.5557 1.65078C17.35 1.53001 17.1162 1.46576 16.8778 1.4645C16.8778 1.4645 16.8477 1.43429 16.8477 1.37891C16.8477 1.32352 16.8477 1.29332 16.8778 1.29332H17.4653C17.5859 1.29332 17.7616 1.29332 17.9977 1.29332H19.0573C19.1878 1.29332 19.3485 1.29332 19.5595 1.29332C19.6212 1.29006 19.682 1.30978 19.7302 1.3487L19.926 1.59036C20.0817 1.80686 20.1922 1.94783 20.2575 2.02335L25.1036 7.62196V3.09071C25.1268 2.67011 25.0179 2.25279 24.7922 1.89748C24.697 1.75982 24.5691 1.64813 24.4201 1.57253C24.271 1.49692 24.1055 1.45979 23.9385 1.4645C23.9385 1.4645 23.9134 1.43429 23.9134 1.37891C23.9134 1.32352 23.9134 1.29332 23.9385 1.29332H24.5411C24.8424 1.29332 25.0935 1.32352 25.2994 1.32352C25.5053 1.32352 25.7463 1.32352 26.0828 1.29332H26.7105C26.7105 1.29332 26.7156 1.32352 26.7156 1.37891Z" fill="white"/>
<path d="M29.5413 3.60963C29.7145 3.8732 29.93 4.10626 30.179 4.29938C30.4301 4.49574 30.7716 4.73237 31.1834 5.01431C31.5706 5.25561 31.9444 5.5178 32.3033 5.79973C32.603 6.02404 32.8584 6.30233 33.0565 6.62039C33.2568 6.95634 33.3594 7.34173 33.3528 7.73306C33.3603 8.19637 33.2234 8.65048 32.9611 9.03202C32.6871 9.42116 32.3119 9.72762 31.8764 9.91813C31.3894 10.1329 30.8617 10.2394 30.3297 10.2303C29.8857 10.2282 29.4438 10.1707 29.014 10.0591C28.6823 9.99631 28.3674 9.86422 28.09 9.67143C28.0498 9.64164 28.0142 9.60601 27.9845 9.5657C27.9558 9.51719 27.9435 9.46068 27.9494 9.40459L27.9092 7.17421C27.9092 7.13896 27.9092 7.11882 27.9795 7.11379C28.0498 7.10875 28.0498 7.11379 28.0598 7.1591C28.3411 7.73306 28.5871 8.19625 28.798 8.54868C29.0057 8.9065 29.2743 9.22514 29.5915 9.49018C29.8967 9.75514 30.2875 9.90005 30.6913 9.89799C31.0254 9.91105 31.3531 9.80391 31.6153 9.5959C31.7454 9.46465 31.8456 9.30665 31.9089 9.1328C31.9722 8.95895 31.9971 8.7734 31.9819 8.58896C31.9891 8.21133 31.8936 7.83886 31.7057 7.51153C31.5391 7.19649 31.3161 6.91489 31.0478 6.6808C30.7867 6.46935 30.4251 6.21257 29.9681 5.91049C29.6068 5.68366 29.2596 5.43481 28.9286 5.16535C28.6749 4.95749 28.4591 4.70708 28.2908 4.42525C28.1126 4.12004 28.0206 3.77195 28.0247 3.41831C28.0108 2.96238 28.1625 2.51692 28.4515 2.16466C28.7395 1.81242 29.1155 1.54312 29.5413 1.38428C29.9941 1.22234 30.4716 1.14057 30.9524 1.14262C31.2892 1.14267 31.6253 1.173 31.9568 1.23324C32.2347 1.2769 32.5073 1.34945 32.7703 1.44973C32.8364 1.47234 32.8942 1.51446 32.936 1.57057C32.9662 1.61862 32.9802 1.67506 32.9762 1.73168V3.79088C32.9762 3.82108 32.9762 3.84122 32.9109 3.85633C32.8456 3.87143 32.8356 3.85633 32.8255 3.85633L32.71 3.58949C32.5104 3.04947 32.2347 2.54086 31.8915 2.07907C31.7405 1.87713 31.5427 1.71517 31.3152 1.60725C31.0876 1.49933 30.8373 1.44872 30.5858 1.4598C30.2498 1.44648 29.9213 1.56166 29.6668 1.78202C29.5423 1.89995 29.4444 2.04313 29.3794 2.202C29.3145 2.36087 29.2841 2.53179 29.2902 2.70338C29.2789 3.02416 29.3666 3.34062 29.5413 3.60963Z" fill="white"/>
<path d="M41.0609 7.80383C41.0855 7.7967 41.1116 7.7967 41.1362 7.80383C41.1362 7.80383 41.1714 7.80383 41.1714 7.83404C41.0833 8.5018 41.0363 9.17437 41.0308 9.84793C41.0377 9.90476 41.0234 9.96216 40.9906 10.009C40.9681 10.0287 40.9417 10.0434 40.9131 10.0521C40.8846 10.0607 40.8545 10.0632 40.8249 10.0594H34.638C34.6078 10.0594 34.5928 10.0292 34.5928 9.9738C34.5928 9.91841 34.5928 9.89324 34.638 9.89324C34.8562 9.9019 35.0745 9.87815 35.2858 9.82275C35.3499 9.8009 35.4082 9.76457 35.4561 9.71656C35.504 9.66854 35.5402 9.61014 35.562 9.54585C35.6166 9.34247 35.6403 9.132 35.6323 8.92154V2.43179C35.6403 2.22299 35.6166 2.01417 35.562 1.81252C35.539 1.74863 35.5017 1.69088 35.453 1.64374C35.4042 1.5966 35.3453 1.56132 35.2808 1.54065C35.0718 1.48149 34.8549 1.456 34.638 1.46513C34.6078 1.46513 34.5928 1.43492 34.5928 1.37953C34.5928 1.32415 34.5928 1.29395 34.638 1.29395H40.5889C40.6843 1.29395 40.7295 1.33926 40.7295 1.41981L40.7596 3.28769C40.7596 3.28769 40.7345 3.32294 40.6793 3.32797C40.624 3.33301 40.5989 3.32797 40.5889 3.3028C40.4828 2.82557 40.217 2.39913 39.8356 2.09447C39.4228 1.81602 38.9315 1.67832 38.4345 1.70176H38.0177C37.7964 1.6827 37.5761 1.74735 37.4 1.88301C37.3303 1.95838 37.277 2.04738 37.2433 2.14442C37.2096 2.24146 37.1962 2.34445 37.2041 2.4469V5.30661H38.3642C38.7971 5.33389 39.2288 5.23789 39.6096 5.0297C39.7454 4.94938 39.8573 4.83432 39.9341 4.6963C40.0109 4.55828 40.0497 4.40229 40.0465 4.24429C40.0465 4.21408 40.0716 4.19898 40.1218 4.19898C40.1721 4.19898 40.1972 4.21408 40.1972 4.24429V5.50297V6.17762C40.1972 6.49481 40.2273 6.74654 40.2273 6.93786C40.2273 6.93786 40.1972 6.96304 40.1419 6.96304C40.0867 6.96304 40.0566 6.96304 40.0566 6.93786C40.0641 6.76237 40.0282 6.58772 39.952 6.42957C39.8757 6.27141 39.7615 6.13468 39.6197 6.03161C39.234 5.79174 38.7811 5.68395 38.329 5.7245H37.1841V8.89637C37.1667 9.10957 37.2216 9.32241 37.3397 9.50053C37.4015 9.5714 37.4794 9.62626 37.5668 9.66045C37.6542 9.69463 37.7486 9.70713 37.8419 9.69689H38.3039C38.913 9.72371 39.5163 9.56769 40.0365 9.2488C40.5057 8.90759 40.8471 8.41822 41.0057 7.85922C41.0057 7.85922 41.0207 7.80383 41.0609 7.80383Z" fill="white"/>
<path d="M42.5033 3.79066C42.5033 3.82086 42.4632 3.83093 42.418 3.8259C42.3728 3.82086 42.3477 3.8259 42.3477 3.78059C42.3878 3.40298 42.428 2.91965 42.4732 2.32555C42.5184 1.73146 42.5435 1.2884 42.5435 0.986317C42.5435 0.941005 42.5686 0.915831 42.6239 0.915831C42.6791 0.915831 42.6992 0.915831 42.6992 0.986317C42.6992 1.19274 42.9653 1.29344 43.4977 1.29344C44.3012 1.32364 45.2352 1.33875 46.3099 1.33875C46.8573 1.33875 47.4448 1.33875 48.0575 1.30854H49.0117C49.2714 1.31988 49.5315 1.29617 49.785 1.23805C49.8575 1.2241 49.925 1.19112 49.9805 1.14247C50.0361 1.09382 50.0778 1.03124 50.1014 0.961144C50.1014 0.920866 50.1416 0.905762 50.1918 0.905762C50.242 0.905762 50.2671 0.905762 50.2671 0.961144C50.242 1.23805 50.2119 1.69118 50.1767 2.30541C50.1416 2.91965 50.1315 3.41809 50.1315 3.81583C50.1315 3.81583 50.1064 3.85611 50.0612 3.85611C50.016 3.85611 49.9859 3.85611 49.9759 3.81583C49.8913 3.20627 49.6172 2.63897 49.1924 2.19465C49.0037 2.01511 48.7814 1.87466 48.5384 1.78136C48.2954 1.68805 48.0364 1.64372 47.7763 1.6509C47.6793 1.63874 47.5808 1.64823 47.4879 1.6787C47.395 1.70916 47.31 1.75984 47.2389 1.82711C47.1308 2.03262 47.0854 2.26552 47.1084 2.49673V8.92607C47.0965 9.14067 47.1237 9.35564 47.1887 9.56044C47.2201 9.62542 47.265 9.68288 47.3205 9.72892C47.3759 9.77496 47.4406 9.8085 47.5101 9.82728C47.7589 9.88284 48.0137 9.90652 48.2684 9.89777C48.2986 9.89777 48.3086 9.92294 48.3086 9.97832C48.3086 10.0337 48.3086 10.0639 48.2684 10.0639C47.9336 10.0639 47.6675 10.0639 47.4699 10.0639H46.3099H45.175C44.9791 10.0639 44.7079 10.0639 44.3664 10.0639C44.3363 10.0639 44.3212 10.0337 44.3212 9.97832C44.3212 9.92294 44.3212 9.89777 44.3664 9.89777C44.6178 9.90536 44.8691 9.88168 45.1147 9.82728C45.187 9.80872 45.2543 9.77423 45.3116 9.72633C45.3689 9.67843 45.4149 9.61832 45.4461 9.55037C45.5215 9.35134 45.554 9.13859 45.5416 8.92607V2.43128C45.5615 2.20888 45.5179 1.98538 45.416 1.78684C45.3493 1.72413 45.2699 1.67642 45.1833 1.6469C45.0967 1.61738 45.0049 1.60673 44.9138 1.61566C43.7923 1.61566 42.9888 2.34066 42.5033 3.79066Z" fill="white"/>
<path d="M56.7524 3.60959C56.9256 3.87316 57.1411 4.10622 57.3901 4.29934C57.6412 4.4957 57.9827 4.73233 58.3945 5.01427C58.7817 5.25558 59.1555 5.51777 59.5144 5.79969C59.7997 6.0277 60.0413 6.30577 60.2275 6.62035C60.4277 6.9563 60.5304 7.34169 60.5238 7.73302C60.5313 8.19633 60.3943 8.65044 60.1321 9.03198C59.858 9.42113 59.4829 9.72758 59.0473 9.91809C58.5603 10.1328 58.0326 10.2393 57.5006 10.2302C57.0567 10.2282 56.6147 10.1706 56.1849 10.0591C55.8535 9.99514 55.5389 9.86314 55.2609 9.67139C55.2207 9.6416 55.1851 9.60597 55.1554 9.56566C55.129 9.51626 55.1168 9.46048 55.1203 9.40455L55.0801 7.17417C55.0801 7.13893 55.0801 7.11879 55.1504 7.11375C55.2207 7.10872 55.2257 7.11375 55.2307 7.15906C55.512 7.73302 55.758 8.19622 55.969 8.54865C56.18 8.90552 56.45 9.22388 56.7674 9.49014C57.0707 9.75516 57.4599 9.90017 57.8622 9.89795C58.1964 9.91192 58.5244 9.80467 58.7862 9.59587C58.9175 9.46543 59.0184 9.30754 59.0818 9.13348C59.1451 8.95941 59.1694 8.77347 59.1528 8.58892C59.1635 8.2109 59.0678 7.83751 58.8766 7.51149C58.7045 7.21043 58.48 6.94272 58.2137 6.72104C57.9526 6.50959 57.591 6.25282 57.134 5.95073C56.7726 5.7239 56.4255 5.47505 56.0945 5.20559C55.8421 4.99639 55.6265 4.74622 55.4567 4.46549C55.2785 4.16028 55.1865 3.81219 55.1906 3.45855C55.1767 3.00263 55.3284 2.55716 55.6174 2.2049C55.9106 1.85859 56.2901 1.59629 56.7172 1.44466C57.1774 1.25801 57.6673 1.1557 58.1635 1.14258C58.5003 1.14263 58.8365 1.17296 59.1679 1.2332C59.4458 1.27686 59.7185 1.34942 59.9814 1.44969C60.0483 1.47077 60.1065 1.5132 60.1471 1.57053C60.179 1.61798 60.1949 1.67447 60.1923 1.73164V3.79084C60.1923 3.82105 60.1672 3.84119 60.122 3.85629C60.0768 3.87139 60.0467 3.85629 60.0367 3.85629L59.9262 3.58945C59.7226 3.05123 59.4472 2.54314 59.1076 2.07903C58.9556 1.87701 58.7568 1.71508 58.5285 1.6072C58.3002 1.49932 58.0491 1.44872 57.7969 1.45976C57.4622 1.44516 57.1348 1.56058 56.8829 1.78199C56.758 1.90312 56.6609 2.05012 56.5985 2.21272C56.536 2.37533 56.5097 2.54963 56.5214 2.72348C56.5107 3.0351 56.5909 3.34307 56.7524 3.60959Z" fill="white"/>
<path d="M64.0718 9.62146C63.4075 9.22436 62.8653 8.65119 62.505 7.96504C62.1362 7.26387 61.9464 6.48201 61.9526 5.68935C61.9295 4.80512 62.1861 3.93624 62.6858 3.20723C63.1582 2.53142 63.8035 1.99574 64.5539 1.65654C65.2853 1.32208 66.0802 1.15033 66.884 1.15307C67.7029 1.13372 68.5107 1.34663 69.2142 1.7673C69.8677 2.16545 70.4007 2.73462 70.7559 3.41366C71.1135 4.08244 71.2999 4.82981 71.2982 5.58865C71.3038 6.41776 71.0701 7.23079 70.6253 7.9298C70.1816 8.63839 69.5621 9.21952 68.8275 9.61643C68.083 10.0335 67.2448 10.2535 66.3919 10.2558C65.5749 10.2635 64.7718 10.0439 64.0718 9.62146ZM68.26 9.42511C68.6984 9.08061 69.0294 8.61771 69.2142 8.09091C69.465 7.42204 69.5844 6.71081 69.5657 5.99647C69.5881 5.21946 69.469 4.44487 69.2142 3.7107C68.9903 3.08516 68.5973 2.53433 68.0792 2.11973C67.5838 1.73609 66.9726 1.53359 66.3467 1.54578C65.9659 1.52786 65.5868 1.6066 65.2444 1.7747C64.902 1.9428 64.6075 2.19482 64.3882 2.50741C63.8866 3.29967 63.6427 4.22854 63.6902 5.16574C63.6755 5.99658 63.8152 6.8229 64.102 7.60254C64.3316 8.24922 64.7222 8.82634 65.2369 9.2791C65.6903 9.67142 66.27 9.88601 66.869 9.88327C67.3699 9.88581 67.8582 9.72501 68.26 9.42511Z" fill="white"/>
<path d="M80.6209 9.9782C80.6209 10.0336 80.6209 10.0638 80.5757 10.0638H78.4615C78.3811 10.0638 78.2154 9.87247 77.9593 9.48983C77.6467 8.9777 77.3634 8.44821 77.1106 7.90389C76.7758 7.2326 76.4661 6.48914 76.1816 5.67351C76.0846 5.68041 75.9873 5.68041 75.8903 5.67351C75.4584 5.67351 75.1672 5.67351 75.0215 5.67351V8.92594C75.0111 9.14013 75.0366 9.35456 75.0969 9.56031C75.1226 9.62453 75.1627 9.68196 75.2141 9.72822C75.2655 9.77448 75.3267 9.80832 75.3931 9.82716C75.6281 9.88379 75.8698 9.90751 76.1113 9.89764C76.1113 9.89764 76.1414 9.92281 76.1414 9.9782C76.1414 10.0336 76.1414 10.0638 76.1113 10.0638C75.8049 10.0638 75.5589 10.0638 75.3831 10.0638H74.3185H73.3141C73.1266 10.0638 72.8755 10.0638 72.5608 10.0638C72.5307 10.0638 72.5156 10.0336 72.5156 9.9782C72.5156 9.92281 72.5156 9.89764 72.5608 9.89764C72.7791 9.9063 72.9973 9.88255 73.2086 9.82716C73.2733 9.80529 73.3323 9.76901 73.381 9.72106C73.4297 9.6731 73.4669 9.6147 73.4899 9.55024C73.5491 9.34773 73.5746 9.13678 73.5652 8.92594V2.43116C73.5759 2.22226 73.5521 2.01303 73.4949 1.81189C73.4728 1.74834 73.4364 1.69076 73.3885 1.64361C73.3406 1.59646 73.2825 1.56101 73.2187 1.54001C73.0081 1.48058 72.7894 1.45509 72.5709 1.46449C72.5709 1.46449 72.5458 1.43428 72.5458 1.3789C72.5458 1.32352 72.5458 1.29331 72.5709 1.29331H73.3141C73.741 1.29331 74.0825 1.32352 74.3185 1.32352C74.5545 1.32352 74.891 1.32352 75.2174 1.27821L75.6141 1.25303C75.7798 1.25303 75.9707 1.25303 76.1966 1.25303C76.8974 1.20941 77.5957 1.37217 78.2054 1.72126C78.4269 1.85997 78.6086 2.05404 78.7328 2.28441C78.8569 2.51478 78.9192 2.77355 78.9135 3.03532C78.9081 3.50447 78.7532 3.95961 78.4715 4.33428C78.1755 4.74003 77.7907 5.07242 77.3466 5.30598C77.8728 6.53732 78.5116 7.71713 79.2549 8.83028C79.7571 9.53514 80.2141 9.8926 80.5757 9.8926C80.6058 9.89764 80.6209 9.92281 80.6209 9.9782ZM75.9455 5.32108C76.2204 5.33472 76.4944 5.28115 76.744 5.16501C76.9448 5.05742 77.0973 4.87749 77.1709 4.66154C77.2693 4.31468 77.3134 3.9546 77.3014 3.59418C77.3547 3.04341 77.2373 2.48957 76.965 2.00824C76.8513 1.86309 76.7042 1.74784 76.5362 1.67241C76.3682 1.59698 76.1845 1.56363 76.0008 1.57525C75.7343 1.54672 75.4669 1.62048 75.2525 1.78168C75.1716 1.87885 75.1108 1.99125 75.0737 2.11229C75.0366 2.23332 75.024 2.36056 75.0366 2.48654V5.29087C75.3384 5.32371 75.6422 5.33381 75.9455 5.32108Z" fill="white"/>
<path d="M90.3899 9.9782C90.3899 10.0336 90.3899 10.0638 90.3597 10.0638H87.8488C87.6429 10.0638 87.2612 9.67611 86.7038 8.9058C85.9768 7.86532 85.3063 6.78633 84.6951 5.67351C84.5864 5.68018 84.4774 5.68018 84.3687 5.67351C84.0071 5.67351 83.751 5.67351 83.6003 5.67351V8.92594C83.5915 9.13975 83.6152 9.35367 83.6706 9.56031C83.6926 9.62258 83.7284 9.67899 83.7754 9.72524C83.8224 9.77149 83.8793 9.80635 83.9418 9.82716C84.1548 9.88246 84.3748 9.90621 84.5947 9.89764C84.5947 9.89764 84.6248 9.92281 84.6248 9.9782C84.6248 10.0336 84.6248 10.0638 84.5947 10.0638C84.2883 10.0638 84.0423 10.0638 83.8665 10.0638H82.8019H81.7975C81.6117 10.0638 81.3606 10.0638 81.0392 10.0638C81.0392 10.0638 80.999 10.0336 80.999 9.9782C80.999 9.92281 80.999 9.89764 81.0392 9.89764C81.2591 9.90657 81.4791 9.88282 81.692 9.82716C81.7567 9.80529 81.8156 9.76901 81.8643 9.72106C81.913 9.6731 81.9503 9.6147 81.9733 9.55024C82.0325 9.34773 82.058 9.13678 82.0486 8.92594V2.43116C82.0566 2.22235 82.0329 2.01354 81.9783 1.81189C81.956 1.7476 81.919 1.68948 81.8701 1.64225C81.8212 1.59501 81.7619 1.55998 81.6971 1.54001C81.4883 1.48017 81.2712 1.45467 81.0543 1.46449C81.0543 1.46449 81.0292 1.43428 81.0292 1.3789C81.0292 1.32352 81.0291 1.29331 81.0543 1.29331H81.7975C82.2244 1.29331 82.5658 1.32352 82.8019 1.32352C83.0379 1.32352 83.3744 1.32352 83.7008 1.27821L84.0975 1.25303C84.2632 1.25303 84.454 1.25303 84.68 1.25303C85.3808 1.20941 86.079 1.37217 86.6888 1.72126C86.9103 1.85997 87.092 2.05404 87.2162 2.28441C87.3403 2.51478 87.4025 2.77355 87.3968 3.03532C87.3929 3.47662 87.2564 3.90648 87.0051 4.26883C86.7476 4.6604 86.404 4.98763 86.0008 5.22542C86.7507 6.40355 87.3784 7.3249 87.884 7.98948C88.2723 8.52892 88.728 9.01622 89.2399 9.43948C89.5643 9.71509 89.9702 9.87608 90.3949 9.89764C90.3949 9.89764 90.3899 9.92281 90.3899 9.9782ZM84.4139 5.32108C84.6887 5.33472 84.9627 5.28115 85.2123 5.16501C85.4131 5.05742 85.5656 4.87749 85.6392 4.66154C85.7376 4.31468 85.7817 3.9546 85.7698 3.59418C85.8231 3.04341 85.7056 2.48957 85.4333 2.00824C85.3197 1.86309 85.1725 1.74784 85.0045 1.67241C84.8366 1.59698 84.6528 1.56363 84.4691 1.57525C84.3489 1.56222 84.2272 1.5738 84.1115 1.60928C83.9959 1.64476 83.8886 1.70341 83.7962 1.78168C83.6451 1.9837 83.5751 2.23528 83.6003 2.48654V5.29087C83.8704 5.32163 84.1423 5.33173 84.4139 5.32108Z" fill="white"/>
<path d="M97.2198 7.80383C97.2445 7.79744 97.2705 7.79744 97.2952 7.80383C97.3203 7.80383 97.3303 7.80383 97.3303 7.83404C97.2396 8.50154 97.1926 9.17427 97.1897 9.84793C97.1945 9.90461 97.1803 9.96128 97.1495 10.009C97.1263 10.0291 97.099 10.044 97.0696 10.0527C97.0401 10.0613 97.0092 10.0636 96.9788 10.0594H90.8069C90.7768 10.0594 90.7617 10.0292 90.7617 9.97379C90.7617 9.91841 90.7617 9.89324 90.8069 9.89324C91.0251 9.9019 91.2434 9.87814 91.4547 9.82275C91.5185 9.80128 91.5763 9.76501 91.6234 9.71689C91.6706 9.66877 91.7057 9.61016 91.7259 9.54585C91.783 9.34296 91.8068 9.13209 91.7962 8.92154V2.43179C91.8069 2.2229 91.7831 2.01367 91.7259 1.81252C91.7045 1.74859 91.6683 1.69064 91.6203 1.64339C91.5723 1.59614 91.5139 1.56094 91.4497 1.54065C91.2408 1.48149 91.0238 1.456 90.8069 1.46513C90.7768 1.46513 90.7617 1.43492 90.7617 1.37953C90.7617 1.32415 90.7617 1.29395 90.8069 1.29395H96.7377C96.8331 1.29395 96.8783 1.33926 96.8783 1.41981L96.9035 3.28769C96.9035 3.28769 96.8783 3.32294 96.8281 3.32797C96.7779 3.33301 96.7478 3.32797 96.7377 3.3028C96.6298 2.82634 96.3643 2.40049 95.9844 2.09447C95.5695 1.81215 95.0742 1.67256 94.5733 1.69672H94.1515C93.9319 1.67845 93.7133 1.74309 93.5388 1.87797C93.4691 1.95334 93.4158 2.04235 93.3821 2.13939C93.3484 2.23643 93.335 2.33941 93.3429 2.44186V5.30158H94.503C94.9358 5.32803 95.3673 5.23208 95.7484 5.02467C95.8836 4.94411 95.9949 4.82885 96.0708 4.69079C96.1467 4.55272 96.1845 4.39685 96.1803 4.23925C96.1803 4.20905 96.2054 4.19394 96.2606 4.19394C96.3159 4.19394 96.336 4.19394 96.336 4.23925V5.49793V6.17258C96.336 6.48977 96.3661 6.74151 96.3661 6.93283C96.3661 6.93283 96.336 6.958 96.2807 6.958C96.2255 6.958 96.1954 6.958 96.1954 6.93283C96.2028 6.75682 96.1663 6.58172 96.0892 6.42346C96.012 6.26519 95.8966 6.12876 95.7534 6.02658C95.3787 5.78117 94.9345 5.66455 94.4879 5.69429H93.3429V8.86616C93.3282 9.07845 93.381 9.28995 93.4936 9.47032C93.5559 9.54053 93.6339 9.59493 93.7211 9.62906C93.8084 9.66319 93.9026 9.67609 93.9958 9.66668H94.4578C95.072 9.69655 95.6809 9.54042 96.2054 9.21859C96.6731 8.87685 97.0127 8.38747 97.1696 7.82901C97.1696 7.82901 97.1796 7.80383 97.2198 7.80383Z" fill="white"/>
<path d="M108.094 1.37891C108.094 1.43429 108.094 1.4645 108.063 1.4645C107.891 1.45659 107.72 1.49319 107.566 1.57078C107.412 1.64837 107.281 1.76434 107.185 1.90755C106.953 2.25698 106.84 2.67192 106.863 3.09071V10.2551C106.863 10.2551 106.838 10.3004 106.798 10.3105C106.784 10.3184 106.769 10.3226 106.753 10.3226C106.737 10.3226 106.721 10.3184 106.707 10.3105L100.144 2.82387V8.28151C100.12 8.6967 100.228 9.10882 100.45 9.45963C100.545 9.59822 100.673 9.71089 100.822 9.78739C100.971 9.86389 101.137 9.9018 101.304 9.89765C101.304 9.89765 101.334 9.92282 101.334 9.9782C101.334 10.0336 101.334 10.0638 101.304 10.0638C101.043 10.0638 100.842 10.0638 100.701 10.0638H99.9481H99.0793C98.9236 10.0638 98.6926 10.0638 98.3963 10.0638C98.3662 10.0638 98.3511 10.0336 98.3511 9.9782C98.3511 9.92282 98.3511 9.89765 98.3963 9.89765C98.5807 9.90535 98.7644 9.86976 98.9327 9.79371C99.101 9.71766 99.2492 9.60326 99.3656 9.45963C99.621 9.12226 99.7475 8.70431 99.7221 8.28151V2.34557C99.4951 2.07604 99.2294 1.84187 98.9337 1.65078C98.7279 1.53002 98.4941 1.46576 98.2557 1.4645C98.2557 1.4645 98.2256 1.43429 98.2256 1.37891C98.2256 1.32352 98.2256 1.29332 98.2557 1.29332H98.8433C98.9638 1.29332 99.1396 1.29332 99.3756 1.29332H100.435C100.566 1.29332 100.726 1.29332 100.912 1.29332C100.974 1.29006 101.035 1.30978 101.083 1.3487L101.279 1.59036C101.435 1.80686 101.55 1.94783 101.615 2.02335L106.456 7.62196V3.09071C106.48 2.67011 106.371 2.25279 106.145 1.89748C106.05 1.75982 105.922 1.64813 105.773 1.57253C105.624 1.49692 105.458 1.45979 105.291 1.4645C105.291 1.4645 105.291 1.43429 105.291 1.37891C105.291 1.32352 105.291 1.29332 105.291 1.29332H105.894C106.195 1.29332 106.446 1.32352 106.652 1.32352C106.858 1.32352 107.099 1.32352 107.436 1.29332H108.063C108.063 1.29332 108.094 1.32352 108.094 1.37891Z" fill="white"/>
<path d="M108.946 3.79066C108.946 3.82086 108.906 3.83093 108.86 3.8259C108.815 3.82086 108.79 3.8259 108.79 3.78059C108.825 3.40298 108.87 2.91965 108.916 2.32555C108.961 1.73146 108.986 1.2884 108.986 0.986317C108.986 0.941005 109.011 0.915831 109.061 0.915831C109.111 0.915831 109.142 0.915831 109.142 0.986317C109.142 1.19274 109.408 1.29344 109.94 1.29344C110.739 1.32364 111.678 1.33875 112.752 1.33875C113.301 1.33875 113.884 1.32868 114.5 1.30854H115.449C115.71 1.32009 115.972 1.29638 116.227 1.23805C116.3 1.2241 116.367 1.19112 116.423 1.14247C116.478 1.09382 116.52 1.03124 116.544 0.961144C116.544 0.920866 116.584 0.905762 116.634 0.905762C116.684 0.905762 116.709 0.905762 116.709 0.961144C116.684 1.23805 116.654 1.69118 116.619 2.30541C116.584 2.91965 116.569 3.41809 116.569 3.81583C116.569 3.81583 116.569 3.85611 116.499 3.85611C116.428 3.85611 116.428 3.85611 116.418 3.81583C116.334 3.20627 116.06 2.63897 115.635 2.19465C115.446 2.01511 115.224 1.87466 114.981 1.78136C114.738 1.68805 114.479 1.64372 114.219 1.6509C114.122 1.63802 114.023 1.64717 113.93 1.67767C113.837 1.70817 113.752 1.75924 113.681 1.82711C113.573 2.03262 113.528 2.26552 113.551 2.49673V8.92607C113.539 9.14067 113.566 9.35564 113.631 9.56044C113.662 9.62542 113.707 9.68288 113.763 9.72892C113.818 9.77496 113.883 9.8085 113.952 9.82728C114.201 9.88284 114.456 9.90652 114.711 9.89777C114.711 9.89777 114.751 9.92294 114.751 9.97832C114.751 10.0337 114.751 10.0639 114.711 10.0639C114.376 10.0639 114.11 10.0639 113.912 10.0639H112.752H111.617C111.423 10.0639 111.152 10.0639 110.804 10.0639C110.779 10.0639 110.764 10.0337 110.764 9.97832C110.764 9.92294 110.764 9.89777 110.804 9.89777C111.055 9.90567 111.307 9.88199 111.552 9.82728C111.625 9.80939 111.694 9.77521 111.752 9.72728C111.81 9.67934 111.857 9.61888 111.889 9.55037C111.959 9.35024 111.99 9.1381 111.979 8.92607V2.43128C112.001 2.20876 111.957 1.98462 111.853 1.78684C111.787 1.723 111.708 1.67455 111.621 1.64496C111.535 1.61537 111.442 1.60536 111.351 1.61566C110.233 1.61566 109.431 2.34066 108.946 3.79066Z" fill="white"/>
<path d="M119.782 9.62124C119.116 9.22708 118.573 8.65315 118.215 7.96482C117.844 7.26448 117.655 6.48206 117.663 5.68913C117.636 4.80513 117.891 3.93556 118.391 3.20701C118.861 2.52913 119.507 1.99292 120.259 1.65632C120.991 1.3214 121.786 1.14963 122.589 1.15284C123.411 1.1353 124.221 1.35178 124.925 1.77715C125.575 2.17384 126.105 2.73919 126.461 3.41343C126.815 4.08349 127 4.83029 126.999 5.58843C127.006 6.41786 126.773 7.23153 126.326 7.92958C125.883 8.63936 125.264 9.22082 124.528 9.61621C123.786 10.0343 122.949 10.2544 122.097 10.2556C121.282 10.2634 120.48 10.0437 119.782 9.62124ZM123.965 9.42489C124.417 9.08503 124.76 8.62171 124.955 8.09069C125.201 7.42068 125.318 6.71005 125.301 5.99624C125.314 5.20831 125.181 4.42484 124.91 3.68531C124.686 3.06109 124.295 2.51068 123.78 2.09434C123.282 1.71104 122.669 1.50866 122.042 1.52038C121.661 1.50247 121.282 1.58121 120.94 1.74931C120.597 1.91741 120.303 2.16943 120.084 2.48201C119.582 3.28313 119.343 4.22147 119.401 5.16552C119.386 5.99636 119.526 6.82267 119.812 7.60232C120.039 8.24792 120.426 8.82493 120.937 9.27888C121.391 9.6712 121.97 9.88579 122.569 9.88305C123.067 9.88341 123.551 9.72272 123.95 9.42489H123.965Z" fill="white"/>
<path d="M39.8706 22.5199C39.8706 22.5501 39.8706 22.5652 39.8706 22.5652H38.58C38.4544 22.5652 38.2284 22.3436 37.892 21.8956C37.5555 21.4475 37.1487 20.8232 36.6717 20.0176C36.5831 20.0251 36.4941 20.0251 36.4055 20.0176H35.9887V21.9006C35.9826 22.0231 35.9979 22.1458 36.0339 22.2631C36.0473 22.2998 36.0693 22.3328 36.0982 22.3591C36.1271 22.3854 36.1619 22.4043 36.1996 22.4141C36.3295 22.4451 36.4629 22.4587 36.5963 22.4544C36.5963 22.4544 36.5963 22.4544 36.5963 22.5048C36.5963 22.5551 36.5963 22.5501 36.5963 22.5501H36.1896H35.592H35.0145H34.5625C34.5625 22.5501 34.5625 22.5501 34.5625 22.5048C34.5625 22.4594 34.5625 22.4544 34.5625 22.4544C34.696 22.4595 34.8295 22.4459 34.9592 22.4141C34.9983 22.403 35.0344 22.3832 35.0648 22.3562C35.0953 22.3291 35.1192 22.2956 35.135 22.2581C35.1702 22.1423 35.1855 22.0215 35.1802 21.9006V18.1749C35.1846 18.0561 35.1711 17.9372 35.14 17.8225C35.1239 17.7851 35.0999 17.7517 35.0695 17.7248C35.0391 17.6978 35.0032 17.6779 34.9642 17.6664C34.8369 17.6308 34.7047 17.6155 34.5725 17.6211C34.5725 17.6211 34.5725 17.6211 34.5725 17.5707C34.5725 17.5204 34.5725 17.5254 34.5725 17.5254H34.9894H35.5568C35.7175 17.5254 35.8883 17.5254 36.059 17.5254H36.29H36.5913C36.9748 17.5006 37.3567 17.5937 37.6861 17.7923C37.81 17.8716 37.911 17.9822 37.9789 18.1129C38.0467 18.2437 38.0791 18.3901 38.0728 18.5374C38.072 18.7932 37.9931 19.0427 37.8468 19.2523C37.6991 19.4793 37.4993 19.6674 37.2642 19.8011C37.7011 20.4758 38.0677 21.0044 38.364 21.3921C38.5925 21.7014 38.8591 21.9806 39.1575 22.2228C39.3478 22.3797 39.5842 22.4698 39.8304 22.4796C39.8304 22.4796 39.8706 22.4846 39.8706 22.5199ZM36.4256 19.8212C36.5478 19.8339 36.6712 19.8207 36.788 19.7825C36.9048 19.7444 37.0123 19.6821 37.1035 19.5997C37.2559 19.3642 37.3233 19.0835 37.2944 18.8042C37.327 18.4879 37.2508 18.17 37.0784 17.903C37.0024 17.8164 36.9078 17.7483 36.8016 17.7038C36.6955 17.6593 36.5806 17.6396 36.4658 17.6462C36.3923 17.6453 36.3193 17.6591 36.2512 17.6867C36.1831 17.7144 36.1212 17.7554 36.069 17.8074C35.9848 17.9312 35.9474 18.0812 35.9636 18.2303V19.8212C36.1174 19.8334 36.2718 19.8334 36.4256 19.8212Z" fill="white"/>
<path d="M44.5308 21.2963H44.576C44.5242 21.6666 44.4973 22.04 44.4956 22.414C44.5056 22.4451 44.5056 22.4785 44.4956 22.5096C44.4647 22.5204 44.4311 22.5204 44.4002 22.5096H40.915C40.915 22.5096 40.915 22.5097 40.915 22.4643C40.915 22.419 40.915 22.414 40.915 22.414C41.0502 22.4187 41.1853 22.4052 41.3168 22.3737C41.3545 22.3622 41.3891 22.3422 41.4179 22.3151C41.4466 22.2881 41.4687 22.2547 41.4825 22.2176C41.5178 22.1019 41.5331 21.981 41.5277 21.8602V18.1345C41.5336 18.0152 41.5183 17.8959 41.4825 17.782C41.4676 17.7448 41.4445 17.7115 41.4149 17.6845C41.3854 17.6574 41.3501 17.6375 41.3118 17.626C41.1827 17.5901 41.0488 17.5748 40.915 17.5807C40.915 17.5807 40.915 17.5807 40.915 17.5303C40.915 17.48 40.915 17.485 40.915 17.485H44.2546C44.3098 17.485 44.3349 17.485 44.3349 17.5555V18.6027C44.3349 18.6027 44.3349 18.6027 44.2897 18.6027C44.2445 18.6027 44.2445 18.6027 44.2395 18.6027C44.2091 18.3346 44.0756 18.0889 43.8675 17.9178C43.6593 17.7467 43.3929 17.6637 43.1247 17.6864H42.8033C42.6595 17.6729 42.5156 17.7103 42.3965 17.7921C42.3521 17.8386 42.3183 17.8942 42.2975 17.955C42.2767 18.0159 42.2693 18.0806 42.276 18.1446V19.7859H43.0443C43.6319 19.7859 43.9281 19.5895 43.9281 19.1918C43.9281 19.1918 43.9281 19.1666 43.9733 19.1666C44.0185 19.1666 44.0135 19.1666 44.0135 19.1918V20.3246C44.0135 20.4958 44.0135 20.6367 44.0135 20.7425C44.0135 20.7425 44.0135 20.7425 43.9633 20.7425C43.9131 20.7425 43.9131 20.7425 43.9131 20.7425C43.9131 20.2843 43.6168 20.0527 43.0142 20.0527H42.2559V21.8753C42.2474 21.9409 42.2518 22.0077 42.2691 22.0716C42.2863 22.1355 42.316 22.1954 42.3563 22.2478C42.4573 22.3275 42.5849 22.3654 42.7129 22.3536H43.1046C43.4217 22.3842 43.7391 22.2971 43.9965 22.1087C44.2538 21.9203 44.4332 21.6438 44.5006 21.3315C44.5006 21.3315 44.5107 21.2963 44.5308 21.2963Z" fill="white"/>
<path d="M47.233 18.9199C47.3381 19.0738 47.4689 19.2084 47.6197 19.3176C47.7653 19.4284 47.9662 19.5643 48.2173 19.7204C48.4684 19.8765 48.7195 20.0376 48.8651 20.1634C49.0255 20.2886 49.1617 20.4422 49.2668 20.6166C49.377 20.8076 49.4325 21.0253 49.4276 21.2459C49.4312 21.5064 49.3578 21.7622 49.2166 21.981C49.0671 22.2024 48.8582 22.3769 48.614 22.4845C48.3364 22.6096 48.0345 22.6715 47.7302 22.6657C47.495 22.6637 47.2609 22.6349 47.0322 22.5801C46.8419 22.5398 46.66 22.4666 46.4948 22.3636C46.47 22.3459 46.4497 22.3225 46.4357 22.2954C46.4217 22.2682 46.4145 22.2381 46.4145 22.2075L46.3643 20.9841C46.3642 20.979 46.3653 20.974 46.3673 20.9694C46.3694 20.9647 46.3724 20.9606 46.3763 20.9572C46.3801 20.9539 46.3846 20.9514 46.3894 20.95C46.3943 20.9485 46.3994 20.9481 46.4044 20.9489C46.4116 20.9431 46.4204 20.94 46.4295 20.94C46.4387 20.94 46.4475 20.9431 46.4546 20.9489C46.601 21.3423 46.804 21.712 47.0573 22.0464C47.1596 22.1807 47.292 22.2889 47.4438 22.3624C47.5956 22.4359 47.7625 22.4725 47.9311 22.4694C48.1393 22.4767 48.3436 22.4108 48.5086 22.2831C48.5926 22.2019 48.6571 22.1025 48.6971 21.9926C48.7371 21.8827 48.7516 21.7651 48.7396 21.6487C48.7455 21.4318 48.6917 21.2175 48.5839 21.0294C48.4825 20.8597 48.3515 20.7096 48.1972 20.5864C48.0466 20.4706 47.8356 20.3246 47.5745 20.1534C47.3134 19.9822 47.1175 19.8463 46.9719 19.7305C46.8267 19.6113 46.7027 19.4683 46.6053 19.3075C46.5023 19.1269 46.4502 18.9215 46.4546 18.7134C46.4464 18.4585 46.5282 18.2089 46.6857 18.0086C46.8446 17.8109 47.0549 17.6611 47.2933 17.5756C47.5418 17.4805 47.8057 17.4327 48.0717 17.4346C48.2552 17.4362 48.4383 17.453 48.619 17.485C48.7761 17.5125 48.9294 17.5581 49.076 17.6209C49.1142 17.6284 49.1483 17.6499 49.1714 17.6813C49.1793 17.711 49.1793 17.7423 49.1714 17.772L49.1965 18.8695C49.1965 18.8695 49.1965 18.8695 49.1514 18.9048C49.1062 18.94 49.1062 18.9048 49.1011 18.9048C48.9981 18.5895 48.8528 18.2897 48.6693 18.0136C48.5814 17.883 48.461 17.7776 48.3201 17.7079C48.1792 17.6382 48.0226 17.6064 47.8658 17.6159C47.7603 17.6108 47.6549 17.6269 47.5558 17.6632C47.4566 17.6996 47.3657 17.7553 47.2883 17.8273C47.2158 17.9024 47.1596 17.9917 47.1233 18.0896C47.087 18.1875 47.0713 18.292 47.0774 18.3963C47.0771 18.5823 47.1312 18.7643 47.233 18.9199Z" fill="white"/>
<path d="M51.5223 18.0091C51.2747 18.263 51.1011 18.5798 51.0201 18.9254C51.0201 18.9254 51.0201 18.9254 50.9749 18.9254C50.9297 18.9254 50.9297 18.9254 50.9297 18.9254C50.9297 18.714 50.9749 18.422 51 18.1148C51.0251 17.8077 51.0402 17.5409 51.0402 17.3747C51.0402 17.3445 51.0402 17.3345 51.0854 17.3345C51.1306 17.3345 51.1306 17.3345 51.1306 17.3747C51.1306 17.4905 51.2812 17.5509 51.5775 17.5509C52.0395 17.5509 52.5819 17.5509 53.1945 17.5509H54.1989H54.7463C54.8963 17.5553 55.0463 17.5418 55.1932 17.5107C55.2339 17.5 55.2715 17.4799 55.3029 17.4519C55.3344 17.4239 55.3587 17.3888 55.374 17.3496C55.3746 17.3443 55.3763 17.3391 55.3789 17.3345C55.3815 17.3298 55.385 17.3257 55.3892 17.3225C55.3934 17.3192 55.3983 17.3168 55.4034 17.3154C55.4085 17.314 55.4139 17.3136 55.4192 17.3143C55.4443 17.3143 55.4594 17.3143 55.4594 17.3496C55.4594 17.5174 55.4443 17.7691 55.4142 18.1048C55.4142 18.4421 55.3891 18.714 55.3891 18.9254C55.3891 18.9254 55.3891 18.9254 55.3439 18.9254C55.2987 18.9254 55.2987 18.9254 55.2937 18.9254C55.2734 18.588 55.1408 18.2671 54.917 18.0141C54.7607 17.8841 54.576 17.7931 54.3778 17.7484C54.1797 17.7038 53.9738 17.7069 53.7771 17.7574C53.745 17.7695 53.7158 17.7883 53.6916 17.8126C53.6673 17.837 53.6485 17.8662 53.6365 17.8983C53.608 18.0015 53.5961 18.1086 53.6013 18.2155V21.9261C53.5952 22.0487 53.6105 22.1714 53.6465 22.2886C53.6644 22.327 53.691 22.3606 53.7241 22.3868C53.7572 22.413 53.796 22.4311 53.8373 22.4397C53.9893 22.4709 54.1443 22.4844 54.2993 22.4799C54.2993 22.4799 54.2993 22.4799 54.2993 22.5303C54.2993 22.5806 54.2993 22.5756 54.2993 22.5756H53.8574H53.1996H52.5718H52.14C52.14 22.5756 52.14 22.5756 52.14 22.5303C52.14 22.485 52.14 22.4799 52.14 22.4799C52.295 22.4844 52.45 22.4709 52.602 22.4397C52.6452 22.4309 52.6858 22.4123 52.7206 22.3852C52.7555 22.3581 52.7836 22.3234 52.8028 22.2836C52.8449 22.1693 52.8637 22.0478 52.8581 21.9261V18.2004C52.8625 18.0965 52.8489 17.9926 52.8179 17.8933C52.7879 17.8314 52.736 17.783 52.6723 17.7574C52.568 17.7266 52.4595 17.713 52.3509 17.7171C52.2003 17.7079 52.0494 17.7289 51.9071 17.7791C51.7648 17.8292 51.6339 17.9074 51.5223 18.0091Z" fill="white"/>
<path d="M61.7567 22.5196C61.7567 22.5498 61.7567 22.5649 61.7165 22.5649H61.2143H60.7121H60.2401H59.8132C59.8132 22.5649 59.7831 22.5649 59.7831 22.5196C59.7831 22.4742 59.7831 22.4692 59.8132 22.4692C59.9293 22.4768 60.0457 22.4596 60.1547 22.4189C60.189 22.4044 60.2179 22.3798 60.2377 22.3482C60.2575 22.3167 60.2671 22.2798 60.2652 22.2426C60.2601 22.1023 60.2294 21.9641 60.1748 21.8348L59.306 20.0727H57.8547L57.237 21.4623C57.1723 21.5995 57.1364 21.7486 57.1316 21.9003C57.1284 21.9818 57.145 22.0629 57.18 22.1366C57.215 22.2103 57.2673 22.2743 57.3324 22.3232C57.5004 22.429 57.6969 22.48 57.8949 22.4692C57.92 22.4692 57.9351 22.4692 57.9351 22.5196C57.9351 22.5699 57.9351 22.5649 57.8949 22.5649H57.4781H56.9458H56.4436H56.0167C55.9916 22.5649 55.9766 22.5649 55.9766 22.5196C55.9766 22.4742 55.9766 22.4692 56.0167 22.4692C56.1482 22.4739 56.2784 22.4426 56.3934 22.3786C56.5173 22.2997 56.6192 22.1905 56.6897 22.0614C56.82 21.8427 56.9357 21.6157 57.0362 21.3817L58.7586 17.4899C58.7687 17.4805 58.7806 17.4734 58.7936 17.4691C58.8066 17.4647 58.8203 17.4632 58.834 17.4647C58.8461 17.4628 58.8585 17.4641 58.87 17.4686C58.8814 17.473 58.8915 17.4803 58.8993 17.4899L60.8628 21.4623C60.9864 21.7451 61.1432 22.0121 61.3298 22.2577C61.3781 22.3206 61.4396 22.3721 61.5098 22.4087C61.5801 22.4452 61.6575 22.4659 61.7366 22.4692C61.7416 22.4692 61.7567 22.4843 61.7567 22.5196ZM57.92 19.8713H59.1704L58.5025 18.522L57.92 19.8713Z" fill="white"/>
<path d="M66.6309 17.8679C66.5649 17.7894 66.4815 17.7275 66.3872 17.6873C66.293 17.647 66.1907 17.6296 66.0885 17.6363C66.0885 17.6363 66.0885 17.6363 66.0885 17.586C66.0885 17.5356 66.0885 17.5407 66.0885 17.5407H66.4551H66.9573H67.3942H67.7457C67.7457 17.5407 67.7457 17.5407 67.7457 17.586C67.7457 17.6313 67.7457 17.6363 67.7457 17.6363C67.6493 17.6288 67.5525 17.6461 67.4646 17.6867C67.3767 17.7272 67.3006 17.7896 67.2435 17.8679C67.118 18.0621 67.0581 18.2915 67.0728 18.5224V20.773C67.0822 21.1246 66.9972 21.4724 66.8267 21.7799C66.6677 22.0645 66.4283 22.2957 66.1387 22.4445C65.8183 22.6068 65.4632 22.6881 65.1042 22.6811C64.7445 22.6861 64.3885 22.6068 64.0647 22.4495C63.7672 22.3051 63.5191 22.0756 63.3516 21.79C63.18 21.4827 63.0933 21.1351 63.1005 20.783V18.1901C63.1079 18.0705 63.0908 17.9505 63.0503 17.8377C63.0354 17.8005 63.0123 17.7672 62.9827 17.7401C62.9531 17.7131 62.9179 17.6931 62.8796 17.6816C62.754 17.6455 62.6234 17.6302 62.4929 17.6363C62.4929 17.6363 62.4678 17.6363 62.4678 17.586C62.4678 17.5356 62.4678 17.5407 62.4929 17.5407H62.9097H63.4772H64.0697H64.4715C64.4715 17.5407 64.4966 17.5407 64.4966 17.586C64.4966 17.6313 64.4966 17.6363 64.4715 17.6363C64.341 17.6302 64.2104 17.6455 64.0848 17.6816C64.0066 17.7115 63.9434 17.7713 63.909 17.8478C63.8738 17.9635 63.8585 18.0844 63.8638 18.2052V20.5011C63.8247 21.008 63.9652 21.5126 64.2606 21.9259C64.3971 22.0847 64.5681 22.2099 64.7606 22.292C64.953 22.374 65.1616 22.4107 65.3704 22.3992C65.5685 22.4098 65.7666 22.3776 65.9512 22.3046C66.1358 22.2316 66.3025 22.1196 66.44 21.9762C66.7136 21.6414 66.85 21.2149 66.8217 20.783V18.5224C66.8359 18.2887 66.7685 18.0572 66.6309 17.8679Z" fill="white"/>
<path d="M74.2967 22.5201C74.2967 22.5503 74.2967 22.5654 74.2715 22.5654H72.9809C72.8604 22.5654 72.6294 22.3438 72.298 21.8958C71.9665 21.4477 71.5547 20.8234 71.0726 20.0178C70.9841 20.0255 70.895 20.0255 70.8065 20.0178H70.3897V21.9008C70.3835 22.0233 70.3988 22.146 70.4348 22.2633C70.4491 22.3004 70.472 22.3335 70.5017 22.3598C70.5315 22.3861 70.5671 22.4048 70.6056 22.4143C70.7353 22.4461 70.8689 22.4597 71.0023 22.4546C71.0023 22.4546 71.0023 22.4546 71.0023 22.505C71.0023 22.5553 71.0023 22.5503 71.0023 22.5503H70.5905H69.998H69.4204H69.0036C69.0036 22.5503 68.9785 22.5503 68.9785 22.505C68.9785 22.4596 68.9785 22.4546 69.0036 22.4546C69.1371 22.4589 69.2705 22.4453 69.4003 22.4143C69.4387 22.4029 69.4739 22.3829 69.5035 22.3558C69.5331 22.3288 69.5562 22.2955 69.5711 22.2583C69.611 22.1436 69.6281 22.0221 69.6213 21.9008V18.1751C69.6272 18.0559 69.6119 17.9365 69.5761 17.8227C69.5612 17.7855 69.5381 17.7521 69.5085 17.7251C69.479 17.6981 69.4437 17.6781 69.4054 17.6666C69.2763 17.6307 69.1424 17.6154 69.0086 17.6213C69.0086 17.6213 69.0086 17.6213 69.0086 17.5709C69.0086 17.5206 69.0086 17.5256 69.0086 17.5256H69.4255H69.998C70.1586 17.5256 70.3244 17.5256 70.5001 17.5256H70.7311H71.0274C71.4126 17.5001 71.7963 17.5932 72.1272 17.7925C72.2505 17.8725 72.3509 17.9832 72.4187 18.1139C72.4864 18.2445 72.5193 18.3905 72.5139 18.5376C72.5131 18.7934 72.4342 19.0429 72.2879 19.2525C72.1429 19.472 71.9507 19.656 71.7255 19.7912C72.1674 20.4659 72.534 20.9945 72.8303 21.3822C73.0558 21.6924 73.3209 21.9717 73.6187 22.2129C73.8096 22.3689 74.0456 22.4589 74.2916 22.4697C74.2916 22.4697 74.2967 22.4848 74.2967 22.5201ZM70.8567 19.8215C70.9781 19.8346 71.101 19.8217 71.217 19.7835C71.333 19.7453 71.4396 19.6827 71.5296 19.5999C71.6838 19.3688 71.753 19.0912 71.7255 18.8145C71.7581 18.4982 71.6819 18.1802 71.5095 17.9133C71.4345 17.8268 71.3408 17.7587 71.2354 17.7142C71.1301 17.6697 71.016 17.6499 70.9019 17.6565C70.7596 17.6411 70.617 17.6828 70.5052 17.7723C70.4165 17.8943 70.3771 18.0453 70.3947 18.1952V19.8215C70.5485 19.8331 70.7029 19.8331 70.8567 19.8215Z" fill="white"/>
<path d="M80.761 22.5197C80.761 22.5499 80.761 22.565 80.7209 22.565H80.2187H79.7165H79.2444H78.8176C78.8176 22.565 78.7874 22.565 78.7874 22.5197C78.7874 22.4744 78.7874 22.4694 78.8176 22.4694C78.9337 22.4764 79.0499 22.4592 79.1591 22.419C79.1924 22.4038 79.2203 22.3788 79.2391 22.3474C79.2579 22.3159 79.2668 22.2794 79.2645 22.2428C79.2452 22.0996 79.1992 21.9612 79.1289 21.835L78.2652 20.0729H76.8088L76.1912 21.4624C76.1301 21.6007 76.096 21.7494 76.0907 21.9005C76.0875 21.982 76.1041 22.0631 76.1391 22.1368C76.1741 22.2104 76.2264 22.2745 76.2916 22.3234C76.4577 22.4291 76.6526 22.4801 76.849 22.4694C76.8791 22.4694 76.8892 22.4694 76.8892 22.5197C76.8892 22.5701 76.8892 22.565 76.849 22.565H76.4322H75.93H75.4278H75.006C74.9759 22.565 74.9658 22.565 74.9658 22.5197C74.9658 22.4744 74.9658 22.4694 75.006 22.4694C75.1373 22.4728 75.2672 22.4416 75.3826 22.3788C75.5065 22.2998 75.6085 22.1907 75.6789 22.0616C75.8092 21.8429 75.925 21.6159 76.0254 21.3819L77.7479 17.49C77.757 17.4808 77.768 17.4737 77.7802 17.4693C77.7924 17.465 77.8054 17.4635 77.8182 17.4649C77.8584 17.4649 77.8785 17.4649 77.8835 17.49L79.8521 21.4624C79.9757 21.7452 80.1325 22.0123 80.3191 22.2579C80.3674 22.3208 80.4288 22.3723 80.4991 22.4088C80.5694 22.4454 80.6468 22.466 80.7259 22.4694C80.7309 22.4694 80.761 22.4845 80.761 22.5197ZM76.9243 19.8715H78.1898L77.527 18.5222L76.9243 19.8715Z" fill="white"/>
<path d="M87.2902 17.586C87.2902 17.6212 87.2902 17.6363 87.2902 17.6363C87.1944 17.6301 87.0985 17.6475 87.011 17.687C86.9234 17.7265 86.8469 17.7869 86.788 17.8629C86.66 18.058 86.5983 18.2893 86.6122 18.5224V22.6811C86.6122 22.6811 86.6122 22.6811 86.5721 22.7113C86.5635 22.7157 86.554 22.718 86.5444 22.718C86.5348 22.718 86.5253 22.7157 86.5168 22.7113L82.7504 18.3311V21.6037C82.7372 21.8328 82.797 22.0603 82.9212 22.2532C82.9791 22.3302 83.0555 22.3914 83.1433 22.431C83.2311 22.4706 83.3274 22.4873 83.4234 22.4797C83.4234 22.4797 83.4234 22.4797 83.4234 22.5301C83.4234 22.5804 83.4234 22.5754 83.4234 22.5754H83.0969H82.6701H82.198H81.7662C81.7662 22.5754 81.7662 22.5754 81.7662 22.5301C81.7662 22.4848 81.7662 22.4797 81.7662 22.4797C81.867 22.4855 81.9679 22.4681 82.061 22.4288C82.1541 22.3896 82.2371 22.3295 82.3035 22.2532C82.4382 22.0646 82.5038 21.8352 82.4893 21.6037V18.0794C82.3737 17.9467 82.2382 17.8328 82.0876 17.7421C81.9721 17.6788 81.8425 17.6459 81.7109 17.6464C81.7109 17.6464 81.7109 17.6464 81.7109 17.596C81.7109 17.5457 81.7109 17.5507 81.7109 17.5507H82.0323H82.3286H82.8308H83.0618C83.0963 17.5482 83.1304 17.559 83.1572 17.5809C83.1934 17.6212 83.2253 17.6651 83.2526 17.7118C83.343 17.8327 83.4133 17.9183 83.4535 17.9686L86.336 21.3771V18.5224C86.3514 18.2899 86.2915 18.0586 86.1653 17.8629C86.108 17.7851 86.0317 17.7235 85.9437 17.6838C85.8558 17.6441 85.7592 17.6278 85.6631 17.6363C85.6631 17.6363 85.6631 17.6363 85.6631 17.586C85.6631 17.5356 85.6631 17.5407 85.6631 17.5407H85.9945H86.4214H86.8533H87.2048C87.2048 17.5407 87.2902 17.5558 87.2902 17.586Z" fill="white"/>
<path d="M89.0691 18.0091C88.8216 18.263 88.648 18.5798 88.567 18.9254C88.567 18.9254 88.567 18.9254 88.5218 18.9254C88.4766 18.9254 88.4766 18.9254 88.4766 18.9254C88.4766 18.714 88.5218 18.422 88.5469 18.1148C88.572 17.8077 88.587 17.5409 88.587 17.3747C88.587 17.3445 88.5871 17.3345 88.6323 17.3345C88.6774 17.3345 88.6774 17.3345 88.6774 17.3747C88.6774 17.4905 88.8281 17.5509 89.1244 17.5509C89.5864 17.5509 90.1287 17.5509 90.7414 17.5509H91.7458H92.3132C92.4633 17.5553 92.6133 17.5418 92.7602 17.5107C92.8009 17.5 92.8385 17.4799 92.8699 17.4519C92.9013 17.4239 92.9257 17.3888 92.941 17.3496C92.9416 17.3443 92.9433 17.3391 92.9459 17.3345C92.9485 17.3298 92.952 17.3257 92.9562 17.3225C92.9604 17.3192 92.9652 17.3168 92.9704 17.3154C92.9755 17.314 92.9809 17.3136 92.9862 17.3143C93.0113 17.3143 93.0263 17.3143 93.0263 17.3496C93.0263 17.5174 93.0113 17.7691 92.9811 18.1048C92.9811 18.4421 92.956 18.714 92.956 18.9254C92.956 18.9254 92.956 18.9254 92.9108 18.9254C92.8656 18.9254 92.8656 18.9254 92.8606 18.9254C92.8403 18.588 92.7077 18.2671 92.484 18.0141C92.3277 17.8841 92.1429 17.7931 91.9448 17.7484C91.7466 17.7038 91.5408 17.7069 91.344 17.7574C91.3116 17.7689 91.2821 17.7875 91.2578 17.8119C91.2335 17.8363 91.2149 17.8658 91.2034 17.8983C91.1733 18.0013 91.1597 18.1083 91.1632 18.2155V21.9261C91.1578 22.049 91.1748 22.1719 91.2135 22.2886C91.2307 22.3274 91.257 22.3615 91.2903 22.3878C91.3235 22.4141 91.3627 22.4319 91.4043 22.4397C91.5562 22.4709 91.7113 22.4844 91.8663 22.4799C91.8663 22.4799 91.8663 22.4799 91.8663 22.5303C91.8663 22.5806 91.8663 22.5756 91.8663 22.5756H91.4244H90.7665H90.1388H89.6718C89.6718 22.5756 89.6718 22.5756 89.6718 22.5303C89.6718 22.485 89.6718 22.4799 89.6718 22.4799C89.8268 22.4844 89.9818 22.4709 90.1338 22.4397C90.177 22.4309 90.2176 22.4123 90.2524 22.3852C90.2873 22.3581 90.3154 22.3234 90.3346 22.2836C90.3767 22.1693 90.3955 22.0478 90.3899 21.9261V18.2004C90.3943 18.0965 90.3807 17.9926 90.3497 17.8933C90.3197 17.8314 90.2678 17.783 90.2041 17.7574C90.0998 17.7266 89.9913 17.713 89.8827 17.7171C89.5836 17.7025 89.291 17.8076 89.0691 18.0091Z" fill="white"/>
</svg>
