<svg width="40" height="40" viewBox="0 0 40 40" fill="none" xmlns="http://www.w3.org/2000/svg">
<g clip-path="url(#clip0_23_725)">
<path d="M24.7972 24.5134L24.7973 24.5136L24.8064 24.5045C24.8756 24.4353 25.0099 24.3585 25.1879 24.3174C25.3511 24.2797 25.5076 24.2823 25.6263 24.3152C26.2198 24.6014 27.038 24.7602 27.7009 24.8889C27.7927 24.9067 27.8815 24.924 27.9664 24.9409C28.319 25.0274 28.7719 25.0656 29.2245 25.0845C29.6877 25.1038 30.1868 25.1038 30.6361 25.1038H30.6415C31.1201 25.1038 31.5 25.4837 31.5 25.9623V30.6415C31.5 31.0442 31.2015 31.5 30.6415 31.5C24.7379 31.5 19.1288 29.1387 14.9951 25.0049C10.8613 20.8712 8.5 15.2621 8.5 9.35849C8.5 8.79851 8.95577 8.5 9.35849 8.5H14.0377C14.5163 8.5 14.8962 8.87992 14.8962 9.35849L14.8962 9.38611C14.8962 10.1244 14.8962 11.219 15.0569 12.0226L15.0592 12.0343L15.0621 12.0458C15.0962 12.1821 15.1305 12.3357 15.1687 12.5063L15.1748 12.5337C15.2148 12.7126 15.2585 12.9069 15.3074 13.1024C15.4002 13.4736 15.5185 13.8783 15.6849 14.223C15.718 14.3423 15.7026 14.4445 15.6743 14.4964C15.6621 14.5187 15.6457 14.5371 15.6162 14.553C15.5844 14.5701 15.5183 14.5943 15.3962 14.5943H15.1816L15.0337 14.75L12.1658 17.7688L11.9242 18.0231L12.0811 18.3368C13.1681 20.5107 14.5633 22.2138 15.9483 23.5988C17.4862 25.1367 19.0383 26.38 21.2104 27.4661L21.5241 27.6229L21.7783 27.3814L24.7972 24.5134Z" stroke="#B68C2D"/>
</g>
<defs>
<clipPath id="clip0_23_725">
<rect width="24" height="24" fill="white" transform="translate(8 8)"/>
</clipPath>
</defs>
</svg>
