<svg width="52" height="62" viewBox="0 0 52 62" fill="none" xmlns="http://www.w3.org/2000/svg">
<path d="M51.361 20.9354C51.3609 22.7912 50.9472 24.6236 50.1499 26.2994C49.3526 27.9752 48.1917 29.4522 46.7518 30.6229L43.0917 53.0853H9.27269L5.69988 30.6829C3.67625 29.0708 2.20418 26.8692 1.48768 24.3831C0.771188 21.897 0.845753 19.2496 1.70104 16.8078C2.55633 14.366 4.14999 12.2507 6.26116 10.7551C8.37233 9.25948 10.8964 8.45759 13.4837 8.46056C13.9155 8.46046 14.3469 8.48231 14.7765 8.52601C15.7432 6.29072 17.3429 4.38713 19.3783 3.04984C21.4137 1.71255 23.7959 1 26.2313 1C28.6667 1 31.0489 1.71255 33.0843 3.04984C35.1197 4.38713 36.7193 6.29072 37.6861 8.52601C38.0902 8.48399 38.4962 8.46396 38.9025 8.46601C42.2072 8.47035 45.3752 9.78582 47.711 12.1237C50.0468 14.4615 51.3595 17.6306 51.361 20.9354V20.9354Z" stroke="#B68C2D" stroke-miterlimit="10" stroke-linecap="round"/>
<path d="M43.2448 53.085H9.12035C7.91533 53.085 6.93848 54.0618 6.93848 55.2668V58.8178C6.93848 60.0228 7.91533 60.9997 9.12035 60.9997H43.2448C44.4498 60.9997 45.4267 60.0228 45.4267 58.8178V55.2668C45.4267 54.0618 44.4498 53.085 43.2448 53.085Z" stroke="#B68C2D" stroke-miterlimit="10" stroke-linecap="round"/>
<path d="M26.1816 19.6702V42.4544" stroke="#B68C2D" stroke-miterlimit="10" stroke-linecap="round"/>
<path d="M35.8694 27.1377L35.3457 42.0562" stroke="#B68C2D" stroke-miterlimit="10" stroke-linecap="round"/>
<path d="M16.4941 27.1377L17.0178 42.0562" stroke="#B68C2D" stroke-miterlimit="10" stroke-linecap="round"/>
</svg>
