<svg width="45" height="63" viewBox="0 0 45 63" fill="none" xmlns="http://www.w3.org/2000/svg">
<path d="M6 17C8.76142 17 11 14.7614 11 12C11 9.23858 8.76142 7 6 7C3.23858 7 1 9.23858 1 12C1 14.7614 3.23858 17 6 17Z" stroke="#B68C2D" stroke-miterlimit="10" stroke-linecap="round"/>
<path d="M35.6847 62.0003H10.0148C10.0148 60.3134 14.9148 58.0541 20.7587 57.5119V33.6344L5.54149 15.0584C5.3269 14.7248 5.20613 14.3395 5.19186 13.943C5.17759 13.5466 5.27034 13.1536 5.46038 12.8054C5.65042 12.4571 5.93073 12.1665 6.27186 11.964C6.61299 11.7615 7.00237 11.6546 7.39908 11.6545H38.3054C38.7021 11.6546 39.0914 11.7615 39.4326 11.964C39.7737 12.1665 40.054 12.4571 40.2441 12.8054C40.4341 13.1536 40.5269 13.5466 40.5126 13.943C40.4983 14.3395 40.3775 14.7248 40.163 15.0584L24.9458 33.6344V57.5119C30.8047 58.0742 35.6847 60.3134 35.6847 62.0003Z" stroke="#B68C2D" stroke-miterlimit="10" stroke-linecap="round"/>
<path d="M39.1757 6.54785L28 26" stroke="#B68C2D" stroke-miterlimit="10" stroke-linecap="round"/>
<path d="M40.6006 6.91417C42.2338 6.91417 43.5577 5.59024 43.5577 3.95708C43.5577 2.32393 42.2338 1 40.6006 1C38.9675 1 37.6436 2.32393 37.6436 3.95708C37.6436 5.59024 38.9675 6.91417 40.6006 6.91417Z" stroke="#B68C2D" stroke-miterlimit="10" stroke-linecap="round"/>
<path d="M14 17.9644L17.8034 17.0906C18.2927 16.9794 18.8046 16.9704 19.2985 17.0643C19.7924 17.1582 20.2549 17.3524 20.6496 17.6316L21.8718 18.4978C22.2905 18.7964 22.8045 18.9709 23.3413 18.9967C23.8781 19.0225 24.4105 18.8982 24.8632 18.6416L25.6624 18.1876C26.3283 17.8116 27.0744 17.5608 27.8544 17.4508C28.6344 17.3409 29.4317 17.374 30.1966 17.5483L32 17.9644" stroke="#B68C2D" stroke-miterlimit="10" stroke-linecap="round"/>
<path d="M17 23.9644L19.5356 23.0906C19.8618 22.9794 20.203 22.9704 20.5323 23.0643C20.8616 23.1582 21.17 23.3524 21.433 23.6316L22.2479 24.4978C22.527 24.7964 22.8697 24.9709 23.2276 24.9967C23.5854 25.0225 23.9404 24.8982 24.2422 24.6416L24.7749 24.1876C25.2189 23.8116 25.7163 23.5608 26.2363 23.4508C26.7563 23.3409 27.2878 23.374 27.7977 23.5483L29 23.9644" stroke="#B68C2D" stroke-miterlimit="10" stroke-linecap="round"/>
</svg>
