<svg width="60" height="62" viewBox="0 0 60 62" fill="none" xmlns="http://www.w3.org/2000/svg">
<path d="M27.4626 38.019C28.1133 38.4526 28.1133 40.4038 28.5471 41.0542C28.5471 41.271 28.7641 41.4878 28.7641 41.7046C30.0655 41.7046 31.15 41.7046 32.2346 41.7046C33.7529 41.9214 35.2713 42.5718 36.3558 43.439C42.4292 39.103 50.2378 38.2358 57.1788 41.0542C58.2634 41.4878 59.131 42.355 59.3479 43.439C59.5648 44.523 59.5648 45.8239 58.9141 46.6911C57.3957 48.8591 55.4436 50.5935 53.2745 51.8943H53.4914C54.359 52.3279 55.0098 53.1951 55.0098 54.2791C55.2267 55.3631 54.7929 56.4472 53.9252 57.0976C51.5393 59.2656 48.2857 60.5664 45.0321 61H43.5137C40.8995 61 37.2685 60.2908 35 59M27.4626 38.019C27.6795 37.5854 27.4626 38.4526 27.4626 38.019ZM27.4626 38.019C28.981 37.3686 30.2824 36.0677 30.7162 34.3333C30.9331 34.1165 30.9331 33.6829 30.9331 33.2493C33.536 33.2493 36.1389 32.1653 38.308 30.6477C42.863 26.9621 44.1644 20.6748 41.3446 15.4715C39.8263 12.6531 37.8741 10.0515 35.4882 7.66667C33.3191 5.49864 30.7162 3.54743 28.1133 1.81301C26.3781 0.728997 24.209 0.728997 22.4738 1.81301L9.89317 9.61789C8.59173 10.4851 7.72411 11.7859 7.5072 13.3035C7.5072 13.9539 7.5072 14.8211 7.72411 15.4715L1.86763 24.1436C1 25.4444 0.783093 27.1789 1.21691 28.6965L1.43381 29.1301C1 31.9485 1 34.9837 1.65072 37.8022C1.65072 38.019 1.86763 38.2358 1.86763 38.4526C2.51835 41.271 4.47051 43.6558 7.07339 44.9566C7.5072 45.3902 8.15792 45.607 8.59173 45.607C9.45936 47.9919 11.1946 50.3767 13.1468 51.8943L13.5806 52.3279C14.882 53.1951 16.1835 53.6287 17.7018 53.6287C17.9187 53.6287 18.1356 53.6287 18.5694 53.6287C18.7863 53.6287 18.5694 53.8455 18.5694 53.8455C20.0878 55.7967 22.0399 57.5312 24.209 58.6152C25.2935 59.2656 26.3781 59.6992 27.6795 60.1328C28.5472 60.3496 29.6317 60.5664 30.4993 60.5664C32.0177 60.5664 33.7529 60.1328 35.0544 59.2656" stroke="#B68C2D" stroke-miterlimit="10"/>
<path d="M7.72461 15.6882C10.5444 18.7235 14.4487 22.1923 19.0038 25.6611C23.3419 28.9132 27.68 31.5148 31.1505 33.2492" stroke="#B68C2D" stroke-miterlimit="10"/>
<path d="M1.43359 29.1301C4.68719 31.0813 8.80842 33.0326 13.7973 34.767C19.003 36.5014 23.775 37.3686 27.4624 38.019" stroke="#B68C2D" stroke-miterlimit="10"/>
<path d="M8.5918 45.607C11.6285 45.3902 15.5328 45.1734 19.4371 44.3062C22.9076 43.6558 26.1612 42.5718 28.7641 41.7046" stroke="#B68C2D" stroke-miterlimit="10"/>
<path d="M18.5693 54.0623C21.606 52.9783 25.2934 51.2439 29.1978 48.6422C32.0175 46.9078 34.4035 44.9566 36.3557 43.2222" stroke="#B68C2D" stroke-miterlimit="10"/>
<path d="M34.5 59.5C35.3676 58.1992 37.8741 55.5799 38.0911 51.8942C38.308 47.775 37.0065 44.523 36.3558 43.439" stroke="#B68C2D" stroke-miterlimit="10"/>
<path d="M53.2743 51.8943C51.9728 52.5447 49.1531 53.8455 45.4656 53.8455C41.9951 53.8455 39.3923 52.5447 38.0908 51.8943" stroke="#B68C2D" stroke-miterlimit="10"/>
</svg>
