<svg width="58" height="60" viewBox="0 0 58 60" fill="none" xmlns="http://www.w3.org/2000/svg">
<g clip-path="url(#clip0_1_949)">
<path d="M44.2809 34.7764C40.6266 39.6064 34.6078 47.4418 33.748 58.1753C33.748 58.6046 33.533 58.9266 33.2106 59.1413C32.8882 59.356 32.5657 59.5706 32.1358 59.5706H25.4721C25.0422 59.5706 24.7198 59.4633 24.3973 59.1413C24.0749 58.9266 23.9674 58.4973 23.86 58.1753C23.1076 47.4418 13.542 34.7764 13.542 34.7764" stroke="#B68C2D" stroke-miterlimit="10"/>
<path d="M30.5235 30.8049L30.416 42.6117C30.416 42.9337 30.5235 43.2557 30.7385 43.5777C30.9534 43.8997 31.1684 44.0071 31.4908 44.1144C31.8132 44.2217 32.1357 44.2217 32.4581 44.1144C32.7806 44.0071 33.103 43.7924 33.2105 43.5777L42.1312 32.4149" stroke="#B68C2D" stroke-miterlimit="10"/>
<path d="M16.2295 31.5564L24.3979 43.6852C24.6128 43.8998 24.9353 44.1145 25.1502 44.2218C25.4727 44.3292 25.7951 44.3292 26.1175 44.2218C26.44 44.1145 26.6549 43.8998 26.8699 43.6852C27.0848 43.3632 27.1923 43.1485 27.1923 42.7192L27.2998 30.9124" stroke="#B68C2D" stroke-miterlimit="10"/>
<path d="M7.09331 14.7048C6.87835 15.0268 6.55592 15.3488 6.23348 15.4561C4.6213 15.9928 3.1166 17.1735 2.14929 18.6762C1.0745 20.1788 0.537109 22.0035 0.537109 23.8282C0.537109 32.2003 3.22408 36.279 8.92045 36.3864C10.3177 36.3864 11.6074 35.957 12.7897 35.313C13.542 34.8837 14.1869 34.347 14.8318 33.703C16.444 31.9856 17.3038 29.7316 17.3038 27.3703C17.3038 27.0482 17.4113 26.6189 17.6262 26.2969C17.9487 25.9749 18.2711 25.7602 18.5935 25.6529C18.916 25.5456 19.3459 25.5456 19.6683 25.7602C19.9908 25.9749 20.2057 26.2969 20.4207 26.6189C21.6029 29.3023 24.9348 31.0196 28.9115 31.0196C32.7807 31.0196 36.1126 29.3023 37.4023 26.6189C37.6173 26.2969 37.8322 26.0822 38.0472 25.8676C38.2621 25.7602 38.5846 25.6529 38.907 25.6529C39.122 25.6529 39.2295 25.6529 39.3369 25.6529C39.7668 25.7602 40.0893 25.9749 40.3042 26.2969C40.5192 26.6189 40.6267 26.9409 40.6267 27.3703C40.6267 29.7316 41.4865 31.9856 43.0987 33.703C44.7109 35.313 46.753 36.279 49.01 36.279C53.3092 36.279 57.3934 30.2683 57.1784 23.8282C57.0709 22.0035 56.5335 20.1788 55.5662 18.6762C54.4914 17.1735 53.0942 16.1001 51.482 15.4561C51.1596 15.2414 50.8371 15.0268 50.6222 14.7048C50.5147 14.3828 50.4072 14.0608 50.4072 13.6314V13.3094C50.4072 12.5581 50.2998 11.8067 50.0848 11.1627C49.8698 10.4114 49.4399 9.87472 49.01 9.33805C48.5801 8.80138 48.0427 8.47938 47.3978 8.15737C46.753 7.83537 46.1081 7.72803 45.4632 7.72803C44.2809 7.72803 43.0987 8.15737 42.2389 9.01605C42.1314 9.23072 41.8089 9.33805 41.594 9.44539C41.379 9.55272 41.0566 9.55272 40.8416 9.44539C40.6267 9.33805 40.4117 9.23072 40.1968 9.01605C39.9818 8.90871 39.8743 8.58671 39.7668 8.37204C38.907 6.01068 37.4023 4.07866 35.4677 2.68331C33.5331 1.28796 31.276 0.536621 28.9115 0.536621C26.547 0.536621 24.2899 1.28796 22.3553 2.68331C20.4207 4.07866 18.916 6.11802 18.0561 8.37204C17.9487 8.58671 17.8412 8.80138 17.6262 9.01605C17.4113 9.23072 17.0888 9.33805 16.8739 9.44539C16.6589 9.55272 16.3365 9.55272 16.1215 9.44539C15.9066 9.33805 15.6916 9.23072 15.4767 9.01605C14.6168 8.15737 13.4346 7.72803 12.2523 7.72803C10.9625 7.72803 9.6728 8.37204 8.70549 9.33805C7.73818 10.3041 7 13.6047 7 15" stroke="#B68C2D" stroke-miterlimit="10"/>
</g>
<defs>
<clipPath id="clip0_1_949">
<rect width="57.931" height="60" fill="white"/>
</clipPath>
</defs>
</svg>
